<mxfile host="app.diagrams.net" modified="2023-09-25T23:32:11.721Z" agent="Mozilla/5.0 (Windows NT 10.0; Win64; x64; rv:109.0) Gecko/20100101 Firefox/117.0" etag="rxcDAAukEn5gjA6tiwIH" version="21.8.1" type="device">
  <diagram name="Pagina-1" id="XoXRjMPKRKvgqmu1Gu72">
    <mxGraphModel dx="1434" dy="856" grid="1" gridSize="10" guides="1" tooltips="1" connect="1" arrows="1" fold="1" page="1" pageScale="1" pageWidth="827" pageHeight="1169" math="0" shadow="0">
      <root>
        <mxCell id="0" />
        <mxCell id="1" parent="0" />
        <mxCell id="wj0IYQqH9ou-rQZwyn_V-14" style="edgeStyle=orthogonalEdgeStyle;rounded=0;orthogonalLoop=1;jettySize=auto;html=1;" edge="1" parent="1" source="wj0IYQqH9ou-rQZwyn_V-5" target="wj0IYQqH9ou-rQZwyn_V-6">
          <mxGeometry relative="1" as="geometry" />
        </mxCell>
        <mxCell id="wj0IYQqH9ou-rQZwyn_V-15" value="&lt;div&gt;choice_a,&lt;/div&gt;&lt;div&gt;choice_b,&lt;/div&gt;&lt;div&gt;send&lt;br&gt;&lt;/div&gt;" style="edgeLabel;html=1;align=center;verticalAlign=middle;resizable=0;points=[];" vertex="1" connectable="0" parent="wj0IYQqH9ou-rQZwyn_V-14">
          <mxGeometry y="1" relative="1" as="geometry">
            <mxPoint y="-29" as="offset" />
          </mxGeometry>
        </mxCell>
        <mxCell id="wj0IYQqH9ou-rQZwyn_V-5" value="q0" style="ellipse;whiteSpace=wrap;html=1;aspect=fixed;" vertex="1" parent="1">
          <mxGeometry x="120" y="160" width="40" height="40" as="geometry" />
        </mxCell>
        <mxCell id="wj0IYQqH9ou-rQZwyn_V-6" value="q1" style="ellipse;whiteSpace=wrap;html=1;aspect=fixed;" vertex="1" parent="1">
          <mxGeometry x="280" y="160" width="40" height="40" as="geometry" />
        </mxCell>
      </root>
    </mxGraphModel>
  </diagram>
</mxfile>
